# xmcd CD database file
#
# Track frame offsets:
#	150
#	64617
#	115131
#	166764
#	190686
#	193416
#	200170
#	201295
#
# Disc length: 2689 seconds
#
# Revision: 0
# Processed by: cddbd v1.5.1PL2 Copyright (c) Steve Scherf et al.
# Submitted via: CDex 1.51
#
DISCID=740a7f08
DTITLE=Racing Country USA - 2005-12-10
DYEAR=2005
DGENRE=Country
TTITLE0=SP2005
TTITLE1=SP2006
TTITLE2=SP2007
TTITLE3=SP2008
TTITLE4=SP2009
TTITLE5=SP9007
TTITLE6=SP9008
TTITLE7=SP9009
EXTD=YEAR: 2005
EXTT0=
EXTT1=
EXTT2=
EXTT3=
EXTT4=
EXTT5=
EXTT6=
EXTT7=
PLAYORDER=
